<mxfile host="65bd71144e" pages="3">
    <diagram name="Core functions" id="qubiRUcbB-Ls4f5PZgBK">
        <mxGraphModel dx="412" dy="454" grid="1" gridSize="10" guides="1" tooltips="1" connect="1" arrows="1" fold="1" page="1" pageScale="1" pageWidth="827" pageHeight="1169" math="0" shadow="0">
            <root>
                <mxCell id="0"/>
                <mxCell id="1" parent="0"/>
                <mxCell id="9BDcMnczl81npg2UbmDD-3" value="&lt;div&gt;Event access core&lt;/div&gt;(SaaS application)" style="shape=hexagon;perimeter=hexagonPerimeter2;whiteSpace=wrap;html=1;fixedSize=1;fillColor=#e51400;fontColor=#ffffff;strokeColor=#B20000;" parent="1" vertex="1">
                    <mxGeometry x="309" y="380" width="210" height="140" as="geometry"/>
                </mxCell>
                <mxCell id="9BDcMnczl81npg2UbmDD-5" value="I own a SaaS application to facilitate the acess to massive events. I have users register their tickets into my application, then in the day of the event some staff members log in their attendance." style="text;html=1;align=center;verticalAlign=middle;whiteSpace=wrap;rounded=0;" parent="1" vertex="1">
                    <mxGeometry x="224" y="60" width="380" height="30" as="geometry"/>
                </mxCell>
                <mxCell id="9BDcMnczl81npg2UbmDD-6" value="Register ticket" style="shape=hexagon;perimeter=hexagonPerimeter2;whiteSpace=wrap;html=1;fixedSize=1;" parent="1" vertex="1">
                    <mxGeometry x="120" y="310" width="210" height="140" as="geometry"/>
                </mxCell>
                <mxCell id="9BDcMnczl81npg2UbmDD-7" value="Log in attendance" style="shape=hexagon;perimeter=hexagonPerimeter2;whiteSpace=wrap;html=1;fixedSize=1;" parent="1" vertex="1">
                    <mxGeometry x="120" y="450" width="210" height="140" as="geometry"/>
                </mxCell>
                <mxCell id="9BDcMnczl81npg2UbmDD-8" value="Post event analytics" style="shape=hexagon;perimeter=hexagonPerimeter2;whiteSpace=wrap;html=1;fixedSize=1;" parent="1" vertex="1">
                    <mxGeometry x="309" y="520" width="210" height="140" as="geometry"/>
                </mxCell>
                <mxCell id="9BDcMnczl81npg2UbmDD-9" value="Gate and zone management&lt;div&gt;Funcionalidad operativa para segmentacion de accesos.&lt;/div&gt;" style="shape=hexagon;perimeter=hexagonPerimeter2;whiteSpace=wrap;html=1;fixedSize=1;" parent="1" vertex="1">
                    <mxGeometry x="500" y="450" width="210" height="140" as="geometry"/>
                </mxCell>
                <mxCell id="9BDcMnczl81npg2UbmDD-10" value="Fraud detection (security layer)" style="shape=hexagon;perimeter=hexagonPerimeter2;whiteSpace=wrap;html=1;fixedSize=1;" parent="1" vertex="1">
                    <mxGeometry x="500" y="310" width="210" height="140" as="geometry"/>
                </mxCell>
                <mxCell id="9BDcMnczl81npg2UbmDD-11" value="Offline Sync&lt;div&gt;Garantizar que cada staff node tenga datos consistentes en modo offline.&lt;/div&gt;" style="shape=hexagon;perimeter=hexagonPerimeter2;whiteSpace=wrap;html=1;fixedSize=1;" parent="1" vertex="1">
                    <mxGeometry x="309" y="240" width="210" height="140" as="geometry"/>
                </mxCell>
                <mxCell id="9BDcMnczl81npg2UbmDD-12" value="Third Party platforms integrations&lt;div&gt;Integraciones con API&#39;s de teceros.&lt;/div&gt;" style="shape=hexagon;perimeter=hexagonPerimeter2;whiteSpace=wrap;html=1;fixedSize=1;" parent="1" vertex="1">
                    <mxGeometry x="500" y="170" width="210" height="140" as="geometry"/>
                </mxCell>
                <mxCell id="9BDcMnczl81npg2UbmDD-13" value="Online Sync&lt;div&gt;Una vez los Staff Nodes tengan internet enviar informacion a la nube.&lt;/div&gt;" style="shape=hexagon;perimeter=hexagonPerimeter2;whiteSpace=wrap;html=1;fixedSize=1;" parent="1" vertex="1">
                    <mxGeometry x="120" y="590" width="210" height="140" as="geometry"/>
                </mxCell>
                <mxCell id="9BDcMnczl81npg2UbmDD-14" value="Ticket Lifecycle Managment&lt;div&gt;Soporte para cancelaciones, upgrades y transferencias de tickets entre usuarios.&amp;nbsp;&lt;/div&gt;" style="shape=hexagon;perimeter=hexagonPerimeter2;whiteSpace=wrap;html=1;fixedSize=1;" parent="1" vertex="1">
                    <mxGeometry x="500" y="590" width="210" height="140" as="geometry"/>
                </mxCell>
                <mxCell id="9BDcMnczl81npg2UbmDD-15" value="Event access app - Core Components" style="text;html=1;align=center;verticalAlign=middle;resizable=0;points=[];autosize=1;strokeColor=none;fillColor=none;" parent="1" vertex="1">
                    <mxGeometry x="299" y="790" width="230" height="30" as="geometry"/>
                </mxCell>
            </root>
        </mxGraphModel>
    </diagram>
    <diagram id="wY3aJDX8uMD-tdUTQbUa" name="Domain model">
        <mxGraphModel dx="692" dy="454" grid="1" gridSize="10" guides="1" tooltips="1" connect="1" arrows="1" fold="1" page="1" pageScale="1" pageWidth="827" pageHeight="1169" math="0" shadow="0">
            <root>
                <mxCell id="0"/>
                <mxCell id="1" parent="0"/>
                <mxCell id="TlxTeVTGeOfZalJwnFM1-4" style="edgeStyle=orthogonalEdgeStyle;rounded=0;orthogonalLoop=1;jettySize=auto;html=1;exitX=0.5;exitY=0;exitDx=0;exitDy=0;entryX=0.5;entryY=1;entryDx=0;entryDy=0;endArrow=diamondThin;endFill=1;endSize=15;" parent="1" source="5dNIhvBWnEJlbOChymtT-1" target="TlxTeVTGeOfZalJwnFM1-1" edge="1">
                    <mxGeometry relative="1" as="geometry"/>
                </mxCell>
                <mxCell id="TlxTeVTGeOfZalJwnFM1-22" value="Issues" style="edgeLabel;html=1;align=center;verticalAlign=middle;resizable=0;points=[];" parent="TlxTeVTGeOfZalJwnFM1-4" vertex="1" connectable="0">
                    <mxGeometry x="-0.0568" relative="1" as="geometry">
                        <mxPoint as="offset"/>
                    </mxGeometry>
                </mxCell>
                <mxCell id="5dNIhvBWnEJlbOChymtT-1" value="&lt;div&gt;&amp;lt;&amp;lt;entity&amp;gt;&amp;gt;&lt;/div&gt;Ticket / entry" style="swimlane;childLayout=stackLayout;horizontal=1;startSize=50;horizontalStack=0;rounded=1;fontSize=14;fontStyle=0;strokeWidth=2;resizeParent=0;resizeLast=1;shadow=0;dashed=0;align=center;arcSize=4;whiteSpace=wrap;html=1;" parent="1" vertex="1">
                    <mxGeometry x="334" y="450" width="160" height="50" as="geometry"/>
                </mxCell>
                <mxCell id="TlxTeVTGeOfZalJwnFM1-6" style="edgeStyle=orthogonalEdgeStyle;rounded=0;orthogonalLoop=1;jettySize=auto;html=1;entryX=0;entryY=0.5;entryDx=0;entryDy=0;exitX=0.5;exitY=1;exitDx=0;exitDy=0;" parent="1" source="5dNIhvBWnEJlbOChymtT-3" target="5dNIhvBWnEJlbOChymtT-1" edge="1">
                    <mxGeometry relative="1" as="geometry">
                        <Array as="points">
                            <mxPoint x="160" y="475"/>
                        </Array>
                    </mxGeometry>
                </mxCell>
                <mxCell id="TlxTeVTGeOfZalJwnFM1-20" value="registers /&lt;div&gt;owns&lt;/div&gt;" style="edgeLabel;html=1;align=center;verticalAlign=middle;resizable=0;points=[];" parent="TlxTeVTGeOfZalJwnFM1-6" vertex="1" connectable="0">
                    <mxGeometry x="0.1985" y="-1" relative="1" as="geometry">
                        <mxPoint x="12" y="-1" as="offset"/>
                    </mxGeometry>
                </mxCell>
                <mxCell id="5dNIhvBWnEJlbOChymtT-3" value="&lt;div&gt;&amp;lt;&amp;lt;entity&amp;gt;&amp;gt;&lt;/div&gt;User" style="swimlane;childLayout=stackLayout;horizontal=1;startSize=50;horizontalStack=0;rounded=1;fontSize=14;fontStyle=0;strokeWidth=2;resizeParent=0;resizeLast=1;shadow=0;dashed=0;align=center;arcSize=4;whiteSpace=wrap;html=1;" parent="1" vertex="1">
                    <mxGeometry x="80" y="330" width="160" height="50" as="geometry"/>
                </mxCell>
                <mxCell id="TlxTeVTGeOfZalJwnFM1-9" style="edgeStyle=orthogonalEdgeStyle;rounded=0;orthogonalLoop=1;jettySize=auto;html=1;entryX=0.5;entryY=1;entryDx=0;entryDy=0;" parent="1" source="0_ExAQD1o1hq4cxEiFci-1" target="TlxTeVTGeOfZalJwnFM1-2" edge="1">
                    <mxGeometry relative="1" as="geometry"/>
                </mxCell>
                <mxCell id="TlxTeVTGeOfZalJwnFM1-24" value="Generates" style="edgeLabel;html=1;align=center;verticalAlign=middle;resizable=0;points=[];" parent="TlxTeVTGeOfZalJwnFM1-9" vertex="1" connectable="0">
                    <mxGeometry x="-0.0095" y="1" relative="1" as="geometry">
                        <mxPoint as="offset"/>
                    </mxGeometry>
                </mxCell>
                <mxCell id="nZH_-nFZqbruAcXD1f6p-3" style="edgeStyle=orthogonalEdgeStyle;rounded=0;orthogonalLoop=1;jettySize=auto;html=1;entryX=0.5;entryY=0;entryDx=0;entryDy=0;" parent="1" source="0_ExAQD1o1hq4cxEiFci-1" target="nZH_-nFZqbruAcXD1f6p-2" edge="1">
                    <mxGeometry relative="1" as="geometry"/>
                </mxCell>
                <mxCell id="nZH_-nFZqbruAcXD1f6p-4" value="revises" style="edgeLabel;html=1;align=center;verticalAlign=middle;resizable=0;points=[];" parent="nZH_-nFZqbruAcXD1f6p-3" vertex="1" connectable="0">
                    <mxGeometry x="-0.1714" y="-2" relative="1" as="geometry">
                        <mxPoint x="2" y="1" as="offset"/>
                    </mxGeometry>
                </mxCell>
                <mxCell id="0_ExAQD1o1hq4cxEiFci-1" value="&lt;div&gt;&amp;lt;&amp;lt;entity&amp;gt;&amp;gt;&lt;/div&gt;Staff Member" style="swimlane;childLayout=stackLayout;horizontal=1;startSize=50;horizontalStack=0;rounded=1;fontSize=14;fontStyle=0;strokeWidth=2;resizeParent=0;resizeLast=1;shadow=0;dashed=0;align=center;arcSize=4;whiteSpace=wrap;html=1;" parent="1" vertex="1">
                    <mxGeometry x="616" y="330" width="160" height="50" as="geometry"/>
                </mxCell>
                <mxCell id="TlxTeVTGeOfZalJwnFM1-5" style="edgeStyle=orthogonalEdgeStyle;rounded=0;orthogonalLoop=1;jettySize=auto;html=1;entryX=0.5;entryY=1;entryDx=0;entryDy=0;endArrow=diamondThin;endFill=1;endSize=15;" parent="1" source="0_ExAQD1o1hq4cxEiFci-3" target="5dNIhvBWnEJlbOChymtT-1" edge="1">
                    <mxGeometry relative="1" as="geometry"/>
                </mxCell>
                <mxCell id="TlxTeVTGeOfZalJwnFM1-23" value="Assigned to" style="edgeLabel;html=1;align=center;verticalAlign=middle;resizable=0;points=[];" parent="TlxTeVTGeOfZalJwnFM1-5" vertex="1" connectable="0">
                    <mxGeometry x="0.1294" y="3" relative="1" as="geometry">
                        <mxPoint x="3" y="3" as="offset"/>
                    </mxGeometry>
                </mxCell>
                <mxCell id="0_ExAQD1o1hq4cxEiFci-3" value="&lt;div&gt;&amp;lt;&amp;lt;entity&amp;gt;&amp;gt;&lt;/div&gt;Gate / Zone" style="swimlane;childLayout=stackLayout;horizontal=1;startSize=50;horizontalStack=0;rounded=1;fontSize=14;fontStyle=0;strokeWidth=2;resizeParent=0;resizeLast=1;shadow=0;dashed=0;align=center;arcSize=4;whiteSpace=wrap;html=1;" parent="1" vertex="1">
                    <mxGeometry x="334" y="600" width="160" height="50" as="geometry"/>
                </mxCell>
                <mxCell id="TlxTeVTGeOfZalJwnFM1-1" value="&lt;div&gt;&amp;lt;&amp;lt;entity&amp;gt;&amp;gt;&lt;/div&gt;Event" style="swimlane;childLayout=stackLayout;horizontal=1;startSize=50;horizontalStack=0;rounded=1;fontSize=14;fontStyle=0;strokeWidth=2;resizeParent=0;resizeLast=1;shadow=0;dashed=0;align=center;arcSize=4;whiteSpace=wrap;html=1;" parent="1" vertex="1">
                    <mxGeometry x="334" y="310" width="160" height="50" as="geometry"/>
                </mxCell>
                <mxCell id="TlxTeVTGeOfZalJwnFM1-2" value="&lt;div&gt;&amp;lt;&amp;lt;entity&amp;gt;&amp;gt;&lt;/div&gt;Attendance Log" style="swimlane;childLayout=stackLayout;horizontal=1;startSize=50;horizontalStack=0;rounded=1;fontSize=14;fontStyle=0;strokeWidth=2;resizeParent=0;resizeLast=1;shadow=0;dashed=0;align=center;arcSize=4;whiteSpace=wrap;html=1;" parent="1" vertex="1">
                    <mxGeometry x="616" y="190" width="160" height="50" as="geometry"/>
                </mxCell>
                <mxCell id="TlxTeVTGeOfZalJwnFM1-10" value="1" style="text;html=1;align=center;verticalAlign=middle;resizable=0;points=[];autosize=1;strokeColor=none;fillColor=none;" parent="1" vertex="1">
                    <mxGeometry x="190" y="380" width="30" height="30" as="geometry"/>
                </mxCell>
                <mxCell id="TlxTeVTGeOfZalJwnFM1-11" value="&lt;font style=&quot;font-size: 15px;&quot;&gt;*&lt;/font&gt;" style="text;html=1;align=center;verticalAlign=middle;resizable=0;points=[];autosize=1;strokeColor=none;fillColor=none;" parent="1" vertex="1">
                    <mxGeometry x="304" y="450" width="30" height="30" as="geometry"/>
                </mxCell>
                <mxCell id="TlxTeVTGeOfZalJwnFM1-12" value="1" style="text;html=1;align=center;verticalAlign=middle;resizable=0;points=[];autosize=1;strokeColor=none;fillColor=none;" parent="1" vertex="1">
                    <mxGeometry x="414" y="360" width="30" height="30" as="geometry"/>
                </mxCell>
                <mxCell id="TlxTeVTGeOfZalJwnFM1-13" value="&lt;font style=&quot;font-size: 15px;&quot;&gt;*&lt;/font&gt;" style="text;html=1;align=center;verticalAlign=middle;resizable=0;points=[];autosize=1;strokeColor=none;fillColor=none;" parent="1" vertex="1">
                    <mxGeometry x="414" y="430" width="30" height="30" as="geometry"/>
                </mxCell>
                <mxCell id="TlxTeVTGeOfZalJwnFM1-14" value="1" style="text;html=1;align=center;verticalAlign=middle;resizable=0;points=[];autosize=1;strokeColor=none;fillColor=none;" parent="1" vertex="1">
                    <mxGeometry x="666" y="380" width="30" height="30" as="geometry"/>
                </mxCell>
                <mxCell id="TlxTeVTGeOfZalJwnFM1-16" value="1" style="text;html=1;align=center;verticalAlign=middle;resizable=0;points=[];autosize=1;strokeColor=none;fillColor=none;" parent="1" vertex="1">
                    <mxGeometry x="666" y="300" width="30" height="30" as="geometry"/>
                </mxCell>
                <mxCell id="TlxTeVTGeOfZalJwnFM1-17" value="&lt;font style=&quot;font-size: 15px;&quot;&gt;*&lt;/font&gt;" style="text;html=1;align=center;verticalAlign=middle;resizable=0;points=[];autosize=1;strokeColor=none;fillColor=none;" parent="1" vertex="1">
                    <mxGeometry x="666" y="240" width="30" height="30" as="geometry"/>
                </mxCell>
                <mxCell id="TlxTeVTGeOfZalJwnFM1-18" value="1" style="text;html=1;align=center;verticalAlign=middle;resizable=0;points=[];autosize=1;strokeColor=none;fillColor=none;" parent="1" vertex="1">
                    <mxGeometry x="414" y="500" width="30" height="30" as="geometry"/>
                </mxCell>
                <mxCell id="TlxTeVTGeOfZalJwnFM1-19" value="1" style="text;html=1;align=center;verticalAlign=middle;resizable=0;points=[];autosize=1;strokeColor=none;fillColor=none;" parent="1" vertex="1">
                    <mxGeometry x="414" y="570" width="30" height="30" as="geometry"/>
                </mxCell>
                <mxCell id="nZH_-nFZqbruAcXD1f6p-6" style="edgeStyle=orthogonalEdgeStyle;rounded=0;orthogonalLoop=1;jettySize=auto;html=1;entryX=1;entryY=0.5;entryDx=0;entryDy=0;endArrow=diamondThin;endFill=1;endSize=15;" parent="1" source="nZH_-nFZqbruAcXD1f6p-2" target="5dNIhvBWnEJlbOChymtT-1" edge="1">
                    <mxGeometry relative="1" as="geometry">
                        <mxPoint x="520" y="510" as="targetPoint"/>
                    </mxGeometry>
                </mxCell>
                <mxCell id="nZH_-nFZqbruAcXD1f6p-9" value="Assigned&lt;div&gt;to&lt;/div&gt;" style="edgeLabel;html=1;align=center;verticalAlign=middle;resizable=0;points=[];" parent="nZH_-nFZqbruAcXD1f6p-6" vertex="1" connectable="0">
                    <mxGeometry x="-0.0897" relative="1" as="geometry">
                        <mxPoint as="offset"/>
                    </mxGeometry>
                </mxCell>
                <mxCell id="nZH_-nFZqbruAcXD1f6p-2" value="&lt;div&gt;&amp;lt;&amp;lt;entity&amp;gt;&amp;gt;&lt;/div&gt;Access Crential" style="swimlane;childLayout=stackLayout;horizontal=1;startSize=50;horizontalStack=0;rounded=1;fontSize=14;fontStyle=0;strokeWidth=2;resizeParent=0;resizeLast=1;shadow=0;dashed=0;align=center;arcSize=4;whiteSpace=wrap;html=1;" parent="1" vertex="1">
                    <mxGeometry x="616" y="450" width="160" height="50" as="geometry"/>
                </mxCell>
                <mxCell id="nZH_-nFZqbruAcXD1f6p-5" value="&lt;font style=&quot;font-size: 15px;&quot;&gt;*&lt;/font&gt;" style="text;html=1;align=center;verticalAlign=middle;resizable=0;points=[];autosize=1;strokeColor=none;fillColor=none;" parent="1" vertex="1">
                    <mxGeometry x="666" y="430" width="30" height="30" as="geometry"/>
                </mxCell>
                <mxCell id="nZH_-nFZqbruAcXD1f6p-7" value="1" style="text;html=1;align=center;verticalAlign=middle;resizable=0;points=[];autosize=1;strokeColor=none;fillColor=none;" parent="1" vertex="1">
                    <mxGeometry x="490" y="440" width="30" height="30" as="geometry"/>
                </mxCell>
                <mxCell id="nZH_-nFZqbruAcXD1f6p-8" value="1" style="text;html=1;align=center;verticalAlign=middle;resizable=0;points=[];autosize=1;strokeColor=none;fillColor=none;" parent="1" vertex="1">
                    <mxGeometry x="590" y="440" width="30" height="30" as="geometry"/>
                </mxCell>
                <mxCell id="2TQqlZ_KV-8hGq571G7W-1" value="&lt;div style=&quot;text-align: left;&quot;&gt;Domain Model&lt;/div&gt;&lt;div style=&quot;text-align: left;&quot;&gt;&lt;span style=&quot;background-color: transparent; color: light-dark(rgb(0, 0, 0), rgb(255, 255, 255));&quot;&gt;Things and products important to a business domain&lt;/span&gt;&lt;/div&gt;" style="text;html=1;align=center;verticalAlign=middle;whiteSpace=wrap;rounded=0;" parent="1" vertex="1">
                    <mxGeometry x="50" y="50" width="210" height="30" as="geometry"/>
                </mxCell>
            </root>
        </mxGraphModel>
    </diagram>
    <diagram id="MqXSZWyo-PQy6l7h7F5p" name="Reference architecture">
        <mxGraphModel dx="692" dy="454" grid="1" gridSize="10" guides="1" tooltips="1" connect="1" arrows="1" fold="1" page="1" pageScale="1" pageWidth="827" pageHeight="1169" math="0" shadow="0">
            <root>
                <mxCell id="0"/>
                <mxCell id="1" parent="0"/>
            </root>
        </mxGraphModel>
    </diagram>
</mxfile>